<svg xmlns="http://www.w3.org/2000/svg" xmlns:xlink="http://www.w3.org/1999/xlink" width="500" zoomAndPan="magnify" viewBox="0 0 375 374.999991" height="500" preserveAspectRatio="xMidYMid meet" version="1.0"><defs><g/><clipPath id="faf3b630cf"><path d="M 7.265625 0 L 109 0 L 109 101 L 7.265625 101 Z M 7.265625 0 " clip-rule="nonzero"/></clipPath><clipPath id="148d73ae2b"><path d="M 151 0 L 368.015625 0 L 368.015625 217 L 151 217 Z M 151 0 " clip-rule="nonzero"/></clipPath></defs><path fill="#211522" d="M 274.21875 274.011719 C 246.328125 274.011719 223.714844 296.621094 223.714844 324.476562 C 223.714844 352.363281 246.328125 374.945312 274.21875 374.945312 C 302.113281 374.945312 324.726562 352.363281 324.726562 324.476562 C 324.726562 296.621094 302.113281 274.011719 274.21875 274.011719 Z M 274.21875 360.523438 C 254.320312 360.523438 238.144531 344.363281 238.144531 324.476562 C 238.144531 304.59375 254.320312 288.429688 274.21875 288.429688 C 294.121094 288.429688 310.296875 304.59375 310.296875 324.476562 C 310.296875 344.363281 294.121094 360.523438 274.21875 360.523438 Z M 274.21875 360.523438 " fill-opacity="1" fill-rule="nonzero"/><g clip-path="url(#faf3b630cf)"><path fill="#211522" d="M 57.769531 0.0546875 C 29.878906 0.0546875 7.265625 22.664062 7.265625 50.523438 C 7.265625 78.40625 29.878906 100.988281 57.769531 100.988281 C 85.664062 100.988281 108.277344 78.40625 108.277344 50.523438 C 108.277344 22.664062 85.664062 0.0546875 57.769531 0.0546875 Z M 57.769531 86.570312 C 37.871094 86.570312 21.695312 70.40625 21.695312 50.523438 C 21.695312 30.636719 37.871094 14.476562 57.769531 14.476562 C 77.667969 14.476562 93.84375 30.636719 93.84375 50.523438 C 93.84375 70.40625 77.667969 86.570312 57.769531 86.570312 Z M 57.769531 86.570312 " fill-opacity="1" fill-rule="nonzero"/></g><path fill="#211522" d="M 158.78125 288.429688 C 122.980469 288.429688 93.84375 259.335938 93.84375 223.546875 C 93.84375 191.25 117.65625 164.601562 148.636719 159.699219 C 146.542969 155.1875 144.652344 150.574219 143.109375 145.816406 C 106.832031 153.109375 79.414062 185.191406 79.414062 223.546875 C 79.414062 267.277344 115.027344 302.851562 158.78125 302.851562 C 200.800781 302.851562 235.214844 270.019531 237.886719 228.695312 C 233.007812 227.785156 228.1875 226.71875 223.542969 225.292969 C 222.589844 260.242188 193.988281 288.429688 158.78125 288.429688 Z M 158.78125 288.429688 " fill-opacity="1" fill-rule="nonzero"/><path fill="#211522" d="M 108.277344 223.546875 C 108.277344 227.539062 111.507812 230.757812 115.492188 230.757812 C 119.472656 230.757812 122.707031 227.539062 122.707031 223.546875 C 122.707031 203.664062 138.882812 187.5 158.78125 187.5 C 161.003906 187.5 162.921875 186.433594 164.25 184.847656 C 161.292969 181.214844 158.609375 177.335938 156.097656 173.355469 C 129.515625 174.796875 108.277344 196.65625 108.277344 223.546875 Z M 108.277344 223.546875 " fill-opacity="1" fill-rule="nonzero"/><g clip-path="url(#148d73ae2b)"><path fill="#211522" d="M 259.789062 0.0546875 C 200.007812 0.0546875 151.566406 48.460938 151.566406 108.195312 C 151.566406 167.933594 200.007812 216.335938 259.789062 216.335938 C 319.574219 216.335938 368.015625 167.933594 368.015625 108.195312 C 368.015625 48.460938 319.574219 0.0546875 259.789062 0.0546875 Z M 259.789062 201.917969 C 208.074219 201.917969 165.996094 159.875 165.996094 108.195312 C 165.996094 56.519531 208.074219 14.476562 259.789062 14.476562 C 311.507812 14.476562 353.585938 56.519531 353.585938 108.195312 C 353.585938 159.875 311.507812 201.917969 259.789062 201.917969 Z M 259.789062 201.917969 " fill-opacity="1" fill-rule="nonzero"/></g><path fill="#211522" d="M 187.640625 115.40625 C 183.65625 115.40625 180.425781 112.191406 180.425781 108.195312 C 180.425781 64.464844 216.023438 28.894531 259.789062 28.894531 C 263.773438 28.894531 267.003906 32.136719 267.003906 36.101562 C 267.003906 40.097656 263.773438 43.3125 259.789062 43.3125 C 223.988281 43.3125 194.855469 72.425781 194.855469 108.195312 C 194.855469 112.191406 191.625 115.40625 187.640625 115.40625 Z M 187.640625 115.40625 " fill-opacity="1" fill-rule="nonzero"/><g fill="#406c8d" fill-opacity="1"><g transform="translate(75.348388, 186.670494)"><g><path d="M 1.4375 -2.234375 L -22.171875 -17.375 L -10.796875 -35.125 L -5.921875 -32 L -13.453125 -20.25 L -8.46875 -17.046875 L -1.890625 -27.3125 L 2.640625 -24.40625 L -3.9375 -14.140625 L 5.28125 -8.234375 Z M 1.4375 -2.234375 "/></g></g></g><g fill="#406c8d" fill-opacity="1"><g transform="translate(88.467838, 166.208112)"><g><path d="M -17.25 -13.984375 L -21.734375 -16.859375 L -17.890625 -22.859375 L -13.40625 -19.984375 Z M 1.328125 -2.078125 L -15.421875 -12.828125 L -11.578125 -18.828125 L 5.171875 -8.078125 Z M 1.328125 -2.078125 "/></g></g></g><g fill="#406c8d" fill-opacity="1"><g transform="translate(94.976233, 156.05698)"><g><path d="M 0.921875 -1.453125 L -3.046875 -4 L -6.671875 -17.4375 L -11.25 -10.296875 L -15.3125 -12.90625 L -5.5625 -28.109375 L -1.5 -25.5 L 2.03125 -12.203125 L 7.203125 -20.28125 L 11.3125 -17.65625 Z M 0.921875 -1.453125 "/></g></g></g><g fill="#406c8d" fill-opacity="1"><g transform="translate(107.3155, 136.811449)"><g><path d="M 0.921875 -1.453125 L -3.046875 -4 L -6.671875 -17.4375 L -11.25 -10.296875 L -15.3125 -12.90625 L -5.5625 -28.109375 L -1.5 -25.5 L 2.03125 -12.203125 L 7.203125 -20.28125 L 11.3125 -17.65625 Z M 0.921875 -1.453125 "/></g></g></g><g fill="#406c8d" fill-opacity="1"><g transform="translate(119.654766, 117.565919)"><g><path d="M 1.4375 -2.234375 L -22.171875 -17.375 L -12.078125 -33.140625 L -6.21875 -34.421875 L -0.546875 -30.78125 L 0.046875 -28.125 L 4.03125 -29.140625 L 10.859375 -24.765625 L 12.140625 -18.921875 Z M -9.15625 -17.5 L -5.015625 -23.96875 L -5.421875 -25.8125 L -7.796875 -27.328125 L -9.640625 -26.921875 L -13.78125 -20.453125 Z M 0.734375 -11.15625 L 5.3125 -18.296875 L 4.90625 -20.140625 L 1.421875 -22.375 L -0.421875 -21.96875 L -5 -14.828125 Z M 0.734375 -11.15625 "/></g></g></g><g fill="#406c8d" fill-opacity="1"><g transform="translate(134.991588, 93.645106)"><g><path d="M 3.4375 -5.296875 L -2.40625 -4.03125 L -15.59375 -12.484375 L -11.75 -18.46875 L 0.484375 -10.625 L 2.3125 -11.015625 L 3.15625 -12.34375 L 2.5 -17.34375 L -8.109375 -24.140625 L -4.265625 -30.140625 L 12.453125 -19.421875 L 8.609375 -13.421875 L 6.375 -14.859375 L 6.84375 -10.609375 Z M 3.4375 -5.296875 "/></g></g></g><g fill="#406c8d" fill-opacity="1"><g transform="translate(148.768037, 72.158004)"><g><path d="M 0.921875 -1.453125 L -3.046875 -4 L -6.671875 -17.4375 L -11.25 -10.296875 L -15.3125 -12.90625 L -5.5625 -28.109375 L -1.5 -25.5 L 2.03125 -12.203125 L 7.203125 -20.28125 L 11.3125 -17.65625 Z M 0.921875 -1.453125 "/></g></g></g><g fill="#406c8d" fill-opacity="1"><g transform="translate(161.107303, 52.912474)"><g><path d="M 0.921875 -1.453125 L -3.046875 -4 L -6.671875 -17.4375 L -11.25 -10.296875 L -15.3125 -12.90625 L -5.5625 -28.109375 L -1.5 -25.5 L 2.03125 -12.203125 L 7.203125 -20.28125 L 11.3125 -17.65625 Z M 0.921875 -1.453125 "/></g></g></g></svg>